<svg width="895" height="251" viewBox="0 0 895 251" fill="none" xmlns="http://www.w3.org/2000/svg">
<path d="M145.2 246L5.4 4.79999H15.9L155.7 246H145.2ZM168 246L28.5 4.79999H39L178.5 246H168ZM191.1 246L51.6 4.79999H62.1L201.6 246H191.1ZM112.2 69.9L107.1 61.5L139.8 4.79999H150.3L112.2 69.9ZM123.6 90L118.2 81L162.9 4.79999H173.4L123.6 90ZM135 109.5L129.6 101.1L185.7 4.79999H196.2L135 109.5ZM4.24683e-07 246L66.6 131.7L71.7 140.7L10.5 246H4.24683e-07ZM22.8 246L78 151.5L83.1 160.5L33.3 246H22.8ZM45.9 246L89.4 171.3L94.5 180.3L56.4 246H45.9ZM439.903 125.4C439.903 109.4 437.103 94.4 431.503 80.4C426.103 66.2 418.303 53.8 408.103 43.2C397.903 32.6 385.703 24.3 371.503 18.3C357.303 12.3 341.403 9.29999 323.803 9.29999C306.203 9.29999 290.303 12.3 276.103 18.3C261.903 24.3 249.703 32.6 239.503 43.2C229.303 53.8 221.403 66.2 215.803 80.4C210.403 94.4 207.703 109.4 207.703 125.4C207.703 141.4 210.403 156.5 215.803 170.7C221.403 184.7 229.303 197 239.503 207.6C249.703 218.2 261.903 226.5 276.103 232.5C290.303 238.5 306.203 241.5 323.803 241.5C341.403 241.5 357.303 238.5 371.503 232.5C385.703 226.5 397.903 218.2 408.103 207.6C418.303 197 426.103 184.7 431.503 170.7C437.103 156.5 439.903 141.4 439.903 125.4ZM420.103 125.4C420.103 107.6 416.203 91.5 408.403 77.1C400.603 62.5 389.503 50.9 375.103 42.3C360.703 33.7 343.603 29.4 323.803 29.4C304.203 29.4 287.103 33.7 272.503 42.3C258.103 50.9 247.003 62.5 239.203 77.1C231.403 91.5 227.503 107.6 227.503 125.4C227.503 143 231.403 159.1 239.203 173.7C247.003 188.3 258.103 199.9 272.503 208.5C287.103 217.1 304.203 221.4 323.803 221.4C343.603 221.4 360.703 217.1 375.103 208.5C389.503 199.9 400.603 188.3 408.403 173.7C416.203 159.1 420.103 143 420.103 125.4ZM400.303 125.4C400.303 111.4 397.303 98.7 391.303 87.3C385.303 75.7 376.603 66.5 365.203 59.7C353.803 52.7 340.003 49.2 323.803 49.2C307.803 49.2 294.003 52.7 282.403 59.7C271.003 66.5 262.303 75.7 256.303 87.3C250.303 98.7 247.303 111.4 247.303 125.4C247.303 139.4 250.303 152.2 256.303 163.8C262.303 175.2 271.003 184.4 282.403 191.4C294.003 198.2 307.803 201.6 323.803 201.6C340.003 201.6 353.803 198.2 365.203 191.4C376.603 184.4 385.303 175.2 391.303 163.8C397.303 152.2 400.303 139.4 400.303 125.4ZM323.803 210.9C306.003 210.9 290.703 207.1 277.903 199.5C265.103 191.7 255.303 181.3 248.503 168.3C241.703 155.3 238.303 141 238.303 125.4C238.303 109.6 241.703 95.3 248.503 82.5C255.303 69.5 265.103 59.2 277.903 51.6C290.703 43.8 306.003 39.9 323.803 39.9C341.603 39.9 356.903 43.8 369.703 51.6C382.503 59.2 392.303 69.5 399.103 82.5C405.903 95.3 409.303 109.6 409.303 125.4C409.303 141 405.903 155.3 399.103 168.3C392.303 181.3 382.503 191.7 369.703 199.5C356.903 207.1 341.603 210.9 323.803 210.9ZM323.803 230.7C307.803 230.7 293.303 228 280.303 222.6C267.503 217 256.403 209.4 247.003 199.8C237.803 190.2 230.703 179.1 225.703 166.5C220.903 153.7 218.503 140 218.503 125.4C218.503 110.8 220.903 97.2 225.703 84.6C230.703 71.8 237.803 60.6 247.003 51C256.403 41.2 267.503 33.6 280.303 28.2C293.303 22.8 307.803 20.1 323.803 20.1C339.803 20.1 354.203 22.8 367.003 28.2C380.003 33.6 391.103 41.2 400.303 51C409.703 60.6 416.803 71.8 421.603 84.6C426.603 97.2 429.103 110.8 429.103 125.4C429.103 140 426.603 153.7 421.603 166.5C416.803 179.1 409.703 190.2 400.303 199.8C391.103 209.4 380.003 217 367.003 222.6C354.203 228 339.803 230.7 323.803 230.7ZM323.803 250.5C305.003 250.5 287.903 247.3 272.503 240.9C257.303 234.3 244.203 225.3 233.203 213.9C222.203 202.5 213.703 189.3 207.703 174.3C201.703 159.1 198.703 142.8 198.703 125.4C198.703 108 201.703 91.8 207.703 76.8C213.703 61.6 222.203 48.3 233.203 36.9C244.203 25.5 257.303 16.6 272.503 10.2C287.903 3.59999 305.003 0.29998 323.803 0.29998C342.603 0.29998 359.603 3.59999 374.803 10.2C390.203 16.6 403.403 25.5 414.403 36.9C425.403 48.3 433.903 61.6 439.903 76.8C445.903 91.8 448.903 108 448.903 125.4C448.903 142.8 445.903 159.1 439.903 174.3C433.903 189.3 425.403 202.5 414.403 213.9C403.403 225.3 390.203 234.3 374.803 240.9C359.603 247.3 342.603 250.5 323.803 250.5ZM591.098 246L451.298 4.79999H461.798L601.598 246H591.098ZM613.898 246L474.398 4.79999H484.898L624.398 246H613.898ZM636.998 246L497.498 4.79999H507.998L647.498 246H636.998ZM558.098 69.9L552.998 61.5L585.698 4.79999H596.198L558.098 69.9ZM569.498 90L564.098 81L608.798 4.79999H619.298L569.498 90ZM580.898 109.5L575.498 101.1L631.598 4.79999H642.098L580.898 109.5ZM445.898 246L512.498 131.7L517.598 140.7L456.398 246H445.898ZM468.698 246L523.898 151.5L528.998 160.5L479.198 246H468.698ZM491.798 246L535.298 171.3L540.398 180.3L502.298 246H491.798ZM885.802 125.4C885.802 109.4 883.002 94.4 877.402 80.4C872.002 66.2 864.202 53.8 854.002 43.2C843.802 32.6 831.602 24.3 817.402 18.3C803.202 12.3 787.302 9.29999 769.702 9.29999C752.102 9.29999 736.202 12.3 722.002 18.3C707.802 24.3 695.602 32.6 685.402 43.2C675.202 53.8 667.302 66.2 661.702 80.4C656.302 94.4 653.602 109.4 653.602 125.4C653.602 141.4 656.302 156.5 661.702 170.7C667.302 184.7 675.202 197 685.402 207.6C695.602 218.2 707.802 226.5 722.002 232.5C736.202 238.5 752.102 241.5 769.702 241.5C787.302 241.5 803.202 238.5 817.402 232.5C831.602 226.5 843.802 218.2 854.002 207.6C864.202 197 872.002 184.7 877.402 170.7C883.002 156.5 885.802 141.4 885.802 125.4ZM866.002 125.4C866.002 107.6 862.102 91.5 854.302 77.1C846.502 62.5 835.402 50.9 821.002 42.3C806.602 33.7 789.502 29.4 769.702 29.4C750.102 29.4 733.002 33.7 718.402 42.3C704.002 50.9 692.902 62.5 685.102 77.1C677.302 91.5 673.402 107.6 673.402 125.4C673.402 143 677.302 159.1 685.102 173.7C692.902 188.3 704.002 199.9 718.402 208.5C733.002 217.1 750.102 221.4 769.702 221.4C789.502 221.4 806.602 217.1 821.002 208.5C835.402 199.9 846.502 188.3 854.302 173.7C862.102 159.1 866.002 143 866.002 125.4ZM846.202 125.4C846.202 111.4 843.202 98.7 837.202 87.3C831.202 75.7 822.502 66.5 811.102 59.7C799.702 52.7 785.902 49.2 769.702 49.2C753.702 49.2 739.902 52.7 728.302 59.7C716.902 66.5 708.202 75.7 702.202 87.3C696.202 98.7 693.202 111.4 693.202 125.4C693.202 139.4 696.202 152.2 702.202 163.8C708.202 175.2 716.902 184.4 728.302 191.4C739.902 198.2 753.702 201.6 769.702 201.6C785.902 201.6 799.702 198.2 811.102 191.4C822.502 184.4 831.202 175.2 837.202 163.8C843.202 152.2 846.202 139.4 846.202 125.4ZM769.702 210.9C751.902 210.9 736.602 207.1 723.802 199.5C711.002 191.7 701.202 181.3 694.402 168.3C687.602 155.3 684.202 141 684.202 125.4C684.202 109.6 687.602 95.3 694.402 82.5C701.202 69.5 711.002 59.2 723.802 51.6C736.602 43.8 751.902 39.9 769.702 39.9C787.502 39.9 802.802 43.8 815.602 51.6C828.402 59.2 838.202 69.5 845.002 82.5C851.802 95.3 855.202 109.6 855.202 125.4C855.202 141 851.802 155.3 845.002 168.3C838.202 181.3 828.402 191.7 815.602 199.5C802.802 207.1 787.502 210.9 769.702 210.9ZM769.702 230.7C753.702 230.7 739.202 228 726.202 222.6C713.402 217 702.302 209.4 692.902 199.8C683.702 190.2 676.602 179.1 671.602 166.5C666.802 153.7 664.402 140 664.402 125.4C664.402 110.8 666.802 97.2 671.602 84.6C676.602 71.8 683.702 60.6 692.902 51C702.302 41.2 713.402 33.6 726.202 28.2C739.202 22.8 753.702 20.1 769.702 20.1C785.702 20.1 800.102 22.8 812.902 28.2C825.902 33.6 837.002 41.2 846.202 51C855.602 60.6 862.702 71.8 867.502 84.6C872.502 97.2 875.002 110.8 875.002 125.4C875.002 140 872.502 153.7 867.502 166.5C862.702 179.1 855.602 190.2 846.202 199.8C837.002 209.4 825.902 217 812.902 222.6C800.102 228 785.702 230.7 769.702 230.7ZM769.702 250.5C750.902 250.5 733.802 247.3 718.402 240.9C703.202 234.3 690.102 225.3 679.102 213.9C668.102 202.5 659.602 189.3 653.602 174.3C647.602 159.1 644.602 142.8 644.602 125.4C644.602 108 647.602 91.8 653.602 76.8C659.602 61.6 668.102 48.3 679.102 36.9C690.102 25.5 703.202 16.6 718.402 10.2C733.802 3.59999 750.902 0.29998 769.702 0.29998C788.502 0.29998 805.502 3.59999 820.702 10.2C836.102 16.6 849.302 25.5 860.302 36.9C871.302 48.3 879.802 61.6 885.802 76.8C891.802 91.8 894.802 108 894.802 125.4C894.802 142.8 891.802 159.1 885.802 174.3C879.802 189.3 871.302 202.5 860.302 213.9C849.302 225.3 836.102 234.3 820.702 240.9C805.502 247.3 788.502 250.5 769.702 250.5Z" fill="url(#paint0_linear_62_5)"/>
<defs>
<linearGradient id="paint0_linear_62_5" x1="449" y1="-39" x2="449" y2="321" gradientUnits="userSpaceOnUse">
<stop stop-color="#D17977"/>
<stop offset="0.855" stop-color="#718DA5"/>
<stop offset="1" stop-color="#7E9AB3"/>
</linearGradient>
</defs>
</svg>
